# xmcd
#
# Track frame offsets:
#       150
#       59203
#       86585
#       133258
#       145672
#       164440
#       178493
#       203668
#
# Disc length: 2897 seconds
#
# Revision: 1
# Processed by: cddbd v1.5.1PL0 Copyright (c) Steve Scherf et al.
# Submitted via: MusiCat 1.1
#
DISCID=7c0b4f08
DTITLE=Grieg - Collection
DYEAR=1900
DGENRE=
TTITLE0=Concerto for Piano and Orchestra - Allegro/Molto/Moderato
TTITLE1=Concerto for Piano and Orchestra - Adagio
TTITLE2=Concerto for Piano and Orchestra - Allegro/Moderato Andante/?
TTITLE3=Suite - Allegro Vivace
TTITLE4=Suite - Andante
TTITLE5=Suite - Allegro
TTITLE6=Suite - Andante Religioso
TTITLE7=Suite - Allegro con Brio
EXTD=\n\n
EXTT0=op.16
EXTT1=op.16
EXTT2=op.16
EXTT3=op.40\n
EXTT4=op.40\n
EXTT5=op.40
EXTT6=op.40\n
EXTT7=
PLAYORDER=
